@startuml
'https://plantuml.com/class-diagram

hide circle
skinparam classAttributeIconSize 0

Command <|-l- AddCommand
Command <|-- ChooseVenueCommand
Command <|-- ConfirmCommand
Command <|-r- DeleteCommand
Command <|-- FilterVenueCommand
Command <|-u- FindCompanyCommand
Command <|-u- FindIndustryCommand
Command <|-u- ListCompanyCommand
Command <|-u- ListUnconfirmedCommand
Command <|-u- ListVenueCommand
Command <|-- LoadSampleCompanyCommand
Command <|-- PurgeCommand
Command <|-- UnconfirmCommand
Command <|-u- UpdateEventNameCommand

class Command{
#commandType: String
+Command(commandType: String)
+getCommandType(): String
+execute(companyList: CompanyList): void
+execute(venueList: VenueList): void
+execute(event: Event, venueList: VenueList): void
+execute(event: Event): void
}


class AddCommand {
#companyName: String
#industry: String
#contactNumber: int
#contactEmail: String
+AddCommand(commandType: String, industry: String,
companyName: String, contactNumber: int, contactEmail: String)
+execute(companyList: CompanyList): void
}

class ChooseVenueCommand {}
class ConfirmCommand {}
class DeleteCommand {}
class FilterVenueCommand {}
class FindCompanyCommand {}
class FindIndustryCommand {}
class ListCompanyCommand {}
class ListUnconfirmedCommand {}
class ListVenueCommand {}
class LoadSampleCompanyCommand {}
class PurgeCommand {}
class UnconfirmCommand {}
class UpdateEventNameCommand {}



@enduml